<svg xmlns="http://www.w3.org/2000/svg" xmlns:xlink="http://www.w3.org/1999/xlink" width="93" height="110.81746292114258" viewBox="0 0 93 110.81746292114258" fill="none"><g filter="url(#filter_0_63)"><path   fill-rule="evenodd"  fill="#7E57C2"  d="M5 45.829L5 43.8175L5.03394 43.8175C5.22544 38.1967 6.22716 33.0261 8.03911 28.3057C9.0078 25.7821 10.1973 23.423 11.6077 21.2285C12.9778 19.0967 14.5392 17.1462 16.2919 15.3772C17.9931 13.6601 19.8495 12.139 21.8611 10.8137C23.8178 9.52464 25.8886 8.44225 28.0735 7.56658C30.2118 6.70962 32.4199 6.06632 34.6978 5.63668C36.9482 5.21223 39.2223 5.00462 41.5201 5.01386C43.8162 5.0231 46.0892 5.24866 48.3391 5.69055C50.6133 6.13719 52.8183 6.79598 54.9542 7.6669C57.1344 8.55585 59.2012 9.6491 61.1546 10.9466C63.1617 12.2798 65.0144 13.8057 66.7128 15.5245C68.4625 17.2952 70.0218 19.2439 71.3905 21.3705C72.8 23.5605 73.9892 25.9113 74.958 28.4228C76.9848 33.6773 77.9988 39.4755 78 45.8175L78 95.8175L68 95.8175L68 45.8175C67.9988 40.7168 67.2081 36.1182 65.628 32.0216C64.2075 28.3388 62.198 25.1827 59.5997 22.5533C57.1804 20.1049 54.3733 18.2294 51.1786 16.9268C48.0842 15.665 44.8513 15.0274 41.4799 15.0138C38.1088 15.0002 34.88 15.6119 31.7937 16.8489C28.6061 18.1264 25.8067 19.9819 23.3956 22.4155C20.8009 25.0343 18.794 28.1922 17.3749 31.8893C15.7916 36.014 15 40.6606 15 45.829L15 93.8175L5 93.8175L5 45.829Z"></path><path fill-rule="evenodd"  fill="rgba(126, 87, 194, 1)"  d="M5.03394 43.8175L5 43.8175L5 93.8175L15 93.8175L15 45.829Q15 44.9842 15.0282 44.158Q15.2155 38.6691 16.6475 34.0007Q16.7469 33.6767 16.8523 33.3567Q17.0974 32.6123 17.3749 31.8893Q19.4708 26.4291 23.2761 22.5369Q23.3357 22.4759 23.3956 22.4155L23.3957 22.4153Q23.4629 22.3475 23.5307 22.2801Q26.9951 18.8352 31.5154 16.9623Q31.654 16.9048 31.7937 16.8489Q31.9064 16.8037 32.0193 16.7597Q36.5463 14.9939 41.4799 15.0138C44.7889 15.0271 47.9645 15.6416 51.0067 16.8574Q51.0926 16.8917 51.1784 16.9267L51.1786 16.9268Q51.2613 16.9605 51.344 16.9949Q55.9727 18.9189 59.5071 22.4601Q59.5535 22.5065 59.5997 22.5533Q59.6578 22.6121 59.7154 22.6711Q63.4641 26.5133 65.5562 31.8371Q65.5924 31.9293 65.628 32.0216L65.6281 32.0218Q65.6651 32.1176 65.7015 32.214Q65.9209 32.7941 66.1194 33.3875Q67.4708 37.428 67.8511 42.0861Q67.9996 43.9047 68 45.8175L68 95.8175L78 95.8175L78 45.8175Q77.9999 45.1061 77.9827 44.4041Q77.7995 36.8891 75.6705 30.4185Q75.338 29.4079 74.958 28.4228Q74.863 28.1766 74.7653 27.9324C73.8328 25.6047 72.7079 23.4174 71.3905 21.3705Q69.3835 18.2521 66.8303 15.644Q66.7715 15.5839 66.7128 15.5244Q66.6657 15.4769 66.6183 15.4292Q64.1095 12.9093 61.1546 10.9466Q58.3108 9.05765 55.1465 7.74597Q55.0505 7.70616 54.9542 7.6669Q54.8562 7.62695 54.7579 7.58752Q51.646 6.34001 48.3391 5.69055C46.0892 5.24866 43.8162 5.0231 41.5201 5.01386Q38.0734 5 34.6978 5.63668Q31.4337 6.25232 28.3607 7.45291Q28.2169 7.5091 28.0735 7.56658Q27.9121 7.63125 27.7516 7.69744Q24.6516 8.9753 21.8611 10.8137Q18.8437 12.8016 16.2919 15.3772Q16.2329 15.4367 16.1742 15.4965Q13.6167 18.1025 11.6077 21.2285Q9.49215 24.5203 8.03911 28.3057Q7.08938 30.7798 6.43645 33.4189Q5.22081 38.3324 5.03394 43.8175Z"></path></g><circle cx="29.5" cy="48.51356887817383" r="7.5"   fill="#7E57C2" ></circle><circle cx="54.5" cy="48.51356887817383" r="7.5"   fill="#7E57C2" ></circle><defs><filter id="filter_0_63" x="0" y="0" width="93" height="110.81746292114258" filterUnits="userSpaceOnUse" color-interpolation-filters="sRGB"><feFlood flood-opacity="0" result="feFloodId_0_63"/><feColorMatrix in="SourceAlpha" type="matrix" values="0 0 0 0 0 0 0 0 0 0 0 0 0 0 0 0 0 0 127 0" result="hardAlpha_0_63"/><feOffset dx="5" dy="5"/><feGaussianBlur stdDeviation="5"/><feComposite in2="hardAlpha_0_63" operator="out"/><feColorMatrix type="matrix" values="0 0 0 0 0 0 0 0 0 0 0 0 0 0 0 0 0 0 0.15 0"/><feBlend mode="normal" in2="feFloodId_0_63" result="dropShadow_1_0_63"/><feBlend mode="normal" in="SourceGraphic" in2="dropShadow_1_0_63" result="shape_0_63"/></filter></defs></svg>